<svg width="94" height="65" viewBox="0 0 94 65" fill="none" xmlns="http://www.w3.org/2000/svg">
<path d="M12.4279 55.452L9.65587 58.2202L2.87597 65.0001L0 62.1241L6.7799 55.3442L0.0539004 48.6182L2.82207 45.8462L9.54807 52.5722L12.4279 55.452Z" fill="white"/>
<path d="M31.9399 60.9111H13.6138V64.8959H31.9399V60.9111Z" fill="white"/>
<path d="M93.7558 0.0808105H87.2993V3.96549H93.7558V0.0808105Z" fill="white"/>
<path d="M93.7558 7.31885H87.2993V34.7272H93.7558V7.31885Z" fill="white"/>
<path d="M40.3714 7.44606C37.1726 7.44613 34.0766 8.57544 31.629 10.6349C29.1814 12.6944 27.5394 15.5519 26.9926 18.7035C26.7316 20.2325 26.7316 21.7946 26.9926 23.3236C27.4333 25.8726 28.593 28.2426 30.3352 30.1548C32.0773 32.067 34.3294 33.4418 36.8264 34.1174C39.3235 34.7931 41.9615 34.7414 44.4302 33.9685C46.8988 33.1956 49.0954 31.7336 50.7613 29.7547C52.4272 27.7757 53.4932 25.3621 53.8338 22.7978C54.1744 20.2335 53.7755 17.6253 52.684 15.28C51.5925 12.9348 49.8538 10.9501 47.6726 9.55951C45.4913 8.16895 42.9582 7.43036 40.3714 7.43066V7.44606ZM40.3714 28.2709C38.9376 28.2709 37.5359 27.8457 36.3437 27.0491C35.1515 26.2525 34.2223 25.1203 33.6736 23.7956C33.1249 22.4709 32.9814 21.0132 33.2611 19.6069C33.5408 18.2006 34.2313 16.9089 35.2452 15.895C36.259 14.8811 37.5508 14.1907 38.9571 13.911C40.3634 13.6312 41.821 13.7748 43.1457 14.3235C44.4704 14.8722 45.6026 15.8014 46.3992 16.9936C47.1958 18.1858 47.621 19.5874 47.621 21.0213C47.621 22.944 46.8572 24.7879 45.4976 26.1475C44.1381 27.5071 42.2941 28.2709 40.3714 28.2709Z" fill="white"/>
<path d="M23.5737 30.2457C21.7307 32.2352 19.334 33.627 16.6926 34.2418C14.0513 34.8566 11.2863 34.6662 8.75417 33.695C6.22204 32.7239 4.0388 31.0167 2.48591 28.7933C0.933008 26.57 0.0816312 23.9325 0.0415243 21.2208C0.0014174 18.5091 0.774419 15.8476 2.26088 13.5793C3.74735 11.311 5.87914 9.53989 8.38144 8.49432C10.8837 7.44874 13.6419 7.17662 16.3003 7.71301C18.9587 8.24941 21.3955 9.56975 23.2965 11.5038L18.8267 15.9775C17.8106 14.9279 16.5011 14.2098 15.0698 13.9172C13.6386 13.6247 12.1523 13.7713 10.8058 14.338C9.45936 14.9046 8.31549 15.8648 7.52414 17.0928C6.73279 18.3207 6.33087 19.7591 6.37107 21.2194C6.41126 22.6797 6.8917 24.0938 7.74941 25.2764C8.60711 26.4589 9.80208 27.3548 11.1777 27.8465C12.5533 28.3382 14.0454 28.4029 15.4584 28.032C16.8714 27.6612 18.1394 26.8721 19.0962 25.7682L23.5737 30.2457Z" fill="white"/>
<path d="M77.8323 0.0808105V9.58653C75.2726 8.0078 72.2613 7.32324 69.2706 7.64018C66.28 7.95711 63.479 9.25763 61.3071 11.3378C59.1351 13.418 57.7149 16.1601 57.2692 19.1343C56.8234 22.1085 57.3774 25.1466 58.8442 27.772C60.3109 30.3975 62.6076 32.462 65.3739 33.6417C68.1403 34.8214 71.22 35.0496 74.1301 34.2906C77.0401 33.5316 79.616 31.8283 81.4538 29.4478C83.2916 27.0672 84.2873 24.144 84.2849 21.1366V0.0808105H77.8323ZM70.5173 28.2707C69.0836 28.2699 67.6823 27.8441 66.4906 27.0471C65.299 26.25 64.3704 25.1175 63.8222 23.7927C63.2741 22.468 63.1311 21.0105 63.4113 19.6044C63.6914 18.1984 64.3822 16.907 65.3962 15.8935C66.4102 14.88 67.702 14.1899 69.1082 13.9105C70.5144 13.6311 71.9718 13.7749 73.2963 14.3237C74.6208 14.8725 75.7528 15.8017 76.5492 16.9938C77.3456 18.1859 77.7707 19.5874 77.7707 21.0211C77.7697 22.9442 77.005 24.7881 75.6449 26.1476C74.2847 27.507 72.4403 28.2707 70.5173 28.2707Z" fill="white"/>
<path d="M80.4003 37.7302C77.7143 37.7295 75.0884 38.5253 72.8547 40.0171C70.6211 41.5089 68.88 43.6296 67.8518 46.111C66.8235 48.5924 66.5543 51.323 67.0781 53.9575C67.6019 56.5919 68.8953 59.0118 70.7946 60.9111C72.6939 62.8104 75.1138 64.1038 77.7482 64.6276C80.3827 65.1514 83.1133 64.8822 85.5947 63.8539C88.0761 62.8257 90.1968 61.0846 91.6886 58.851C93.1804 56.6173 93.9762 53.9914 93.9755 51.3054C93.9755 47.7051 92.5452 44.2521 89.9994 41.7063C87.4536 39.1605 84.0006 37.7302 80.4003 37.7302ZM80.4003 58.7783C78.9654 58.7791 77.5624 58.3542 76.369 57.5575C75.1756 56.7608 74.2453 55.628 73.6959 54.3024C73.1464 52.9769 73.0024 51.5181 73.2822 50.1107C73.5619 48.7033 74.2528 47.4106 75.2675 46.3959C76.2821 45.3813 77.5749 44.6904 78.9823 44.4106C80.3897 44.1309 81.8484 44.2748 83.174 44.8243C84.4995 45.3738 85.6323 46.3041 86.4291 47.4975C87.2258 48.6909 87.6506 50.0938 87.6499 51.5287C87.6514 52.4819 87.465 53.426 87.1014 54.3072C86.7378 55.1883 86.2041 55.9891 85.5308 56.6638C84.8576 57.3385 84.0579 57.8739 83.1775 58.2394C82.2972 58.6048 81.3535 58.7932 80.4003 58.7937V58.7783Z" fill="white"/>
<path d="M63.0941 51.3209C63.0985 54.4837 61.9986 57.5489 59.9843 59.9874C57.9701 62.4259 55.1677 64.0848 52.061 64.6778C48.9542 65.2708 45.7379 64.7607 42.967 63.2355C40.1962 61.7103 38.0447 59.2658 36.8838 56.3237C35.7229 53.3816 35.6254 50.1265 36.6082 47.1202C37.591 44.1139 39.5924 41.545 42.267 39.8567C44.9416 38.1685 48.1216 37.4668 51.2583 37.8729C54.395 38.2789 57.2916 39.7672 59.4481 42.0808L54.8666 46.6623C53.8783 45.5835 52.5867 44.829 51.1616 44.4979C49.7365 44.1667 48.2446 44.2746 46.8819 44.8072C45.5192 45.3398 44.3496 46.2722 43.5267 47.4819C42.7038 48.6917 42.2662 50.1221 42.2714 51.5851C42.2766 53.0482 42.7244 54.4754 43.5558 55.6793C44.3873 56.8831 45.5635 57.8072 46.9299 58.3301C48.2964 58.853 49.789 58.9503 51.2118 58.609C52.6345 58.2678 53.9207 57.5041 54.9013 56.4183H50.1388V50.2044H63.0479C63.0787 50.5701 63.0941 50.9436 63.0941 51.3209Z" fill="white"/>
<path d="M48.6681 0V3.88083L31.2583 3.99248L48.6681 0Z" fill="white"/>
</svg>
